<svg xmlns="http://www.w3.org/2000/svg" version="1.1" xmlns:xlink="http://www.w3.org/1999/xlink" xmlns:svgjs="http://svgjs.dev/svgjs" width="100%" height="100%" viewBox="0 0 1000 600"><rect width="1000" height="600" x="0" y="0" fill="#ee4e34"/><g><rect width="333.3333333333333" height="333.3333333333333" rx="13.333333333333334" ry="13.333333333333334" y="182.78437482688642" fill="#fcedda" transform="matrix(0.7785146695665017,0,0,0.7785146695665017,0,27.94722184550487)" x="160.56221008300778"/><path d="M291.8638664660375 287.30563670550146L256.09715340399487 287.30563670550146L256.09715340399487 424.45104477784287L242.58792900285735 424.45104477784287L242.58792900285735 287.30563670550146L206.82121594081477 287.30563670550146L206.82121594081477 274.4510443238023L291.8638664660375 274.4510443238023L291.8638664660375 287.30563670550146ZM339.5627358823888 358.8688188304702L299.5111586931132 358.8688188304702L299.5111586931132 346.72837046997654L339.5627358823888 346.72837046997654L339.5627358823888 358.8688188304702ZM433.74047867886543 424.45104477784287L423.80197438375535 389.51749974053996L376.2816409727054 389.51749974053996L366.4621606811297 424.45104477784287L352.4470842649715 424.45104477784287L396.3669415691104 274.4510443238023L403.50838178116555 274.4510443238023L447.63653109148925 424.45104477784287L433.74047867886543 424.45104477784287ZM399.6103456654188 307.5099613054407L379.97138508226726 376.63315135795733L420.23125427772777 376.63315135795733L400.4732696910421 307.5099613054407L400.05668567867224 301.9455891402144L399.6103456654188 307.5099613054407Z " fill="#ee4e34" transform="matrix(0.7785146695665017,0,0,0.7785146695665017,0,27.94722184550487)"/><path d="M643.3658648533412 284.4479590043568L615.550375675794 284.4479590043568L615.550375675794 391.1048555262497L605.044358964807 391.1048555262497L605.044358964807 284.4479590043568L577.2288697872597 284.4479590043568L577.2288697872597 274.4510444247391L643.3658648533412 274.4510444247391L643.3658648533412 284.4479590043568ZM705.6845939341523 368.2415416265686L705.6845939341523 368.2415416265686Q705.6845939341523 373.28628092832014 703.7870314445025 377.7524950807882Q701.8663279488816 382.2418502392276 698.534023089009 385.57415509910015Q695.2017182291365 388.90645995897273 690.712363070697 390.8271634545937Q686.246148918229 392.72472594424335 681.2014096164775 392.72472594424335L681.2014096164775 392.72472594424335L674.5367998967324 392.72472594424335Q669.4920605949809 392.72472594424335 665.0258464425128 390.8271634545937Q660.5364912840733 388.90645995897273 657.2041864242009 385.57415509910015Q653.8718815643284 382.2418502392276 651.9511780687073 377.7524950807882Q650.0536155790577 373.28628092832014 650.0536155790577 368.2415416265686L650.0536155790577 368.2415416265686L650.0536155790577 330.6605479291171Q650.0536155790577 325.6158086273656 651.9511780687073 321.1495944748975Q653.8718815643284 316.66023931645805 657.2041864242009 313.3279344565856Q660.5364912840733 309.995629596713 665.0258464425128 308.07492610109205Q669.4920605949809 306.1773636114424 674.5367998967324 306.1773636114424L674.5367998967324 306.1773636114424L681.2014096164775 306.1773636114424Q686.246148918229 306.1773636114424 690.712363070697 308.07492610109205Q695.2017182291365 309.995629596713 698.534023089009 313.3279344565856Q701.8663279488816 316.66023931645805 703.7870314445025 321.1495944748975Q705.6845939341523 325.6158086273656 705.6845939341523 330.6605479291171L705.6845939341523 330.6605479291171L705.6845939341523 368.2415416265686ZM695.6876793545346 368.82006677585207L695.6876793545346 330.08202277983366Q695.6876793545346 327.0736920035598 694.5537700619391 324.4356173228274Q693.3967197633722 321.797542642095 691.4528752617799 319.8305571345313Q689.5090307601876 317.88671263293895 686.8478150734837 316.75280334034346Q684.2097403927513 315.59575304177656 681.2014096164775 315.59575304177656L681.2014096164775 315.59575304177656L674.5367998967324 315.59575304177656Q671.5284691204586 315.59575304177656 668.8672534337549 316.75280334034346Q666.2291787530224 317.88671263293895 664.2853342514301 319.8305571345313Q662.3183487438664 321.797542642095 661.1844394512708 324.4356173228274Q660.0505301586753 327.0736920035598 660.0505301586753 330.08202277983366L660.0505301586753 330.08202277983366L660.0505301586753 368.82006677585207Q660.0505301586753 371.8283975521259 661.1844394512708 374.46647223285834Q662.3183487438664 377.10454691359075 664.2853342514301 379.0715324211544Q666.2291787530224 381.0153769227468 668.8672534337549 382.1492862153423Q671.5284691204586 383.28319550793776 674.5367998967324 383.28319550793776L674.5367998967324 383.28319550793776L681.2014096164775 383.28319550793776Q684.2097403927513 383.28319550793776 686.8478150734837 382.1492862153423Q689.5090307601876 381.0153769227468 691.4528752617799 379.0715324211544Q693.3967197633722 377.10454691359075 694.5537700619391 374.46647223285834Q695.6876793545346 371.8283975521259 695.6876793545346 368.82006677585207L695.6876793545346 368.82006677585207ZM781.3556834604248 391.1048555262497L778.0233786005522 391.1048555262497L772.4926781734026 382.6352473407403Q769.0678092896447 387.2865895409791 763.9536469699792 390.0172282455969Q758.8163436443423 392.72472594424335 752.7071180679094 392.72472594424335L752.7071180679094 392.72472594424335L750.1847484170336 392.72472594424335Q745.140009115282 392.72472594424335 740.673794962814 390.8271634545937Q736.2075808103459 388.90645995897273 732.8752759504733 385.57415509910015Q729.5198300846295 382.2418502392276 727.6222675949799 377.7524950807882Q725.7015640993588 373.28628092832014 725.7015640993588 368.2415416265686L725.7015640993588 368.2415416265686L725.7015640993588 330.6605479291171Q725.7015640993588 325.6158086273656 727.6222675949799 321.1495944748975Q729.5198300846295 316.66023931645805 732.8752759504733 313.3279344565856Q736.2075808103459 309.995629596713 740.673794962814 308.07492610109205Q745.140009115282 306.1773636114424 750.1847484170336 306.1773636114424L750.1847484170336 306.1773636114424L752.7071180679094 306.1773636114424Q758.3303825189442 306.1773636114424 763.120570755011 308.44518219663337Q767.9338999970491 310.73614178779576 771.3356278748357 314.7858178327798L771.3356278748357 314.7858178327798L771.3356278748357 274.4510444247391L781.3556834604248 274.4510444247391L781.3556834604248 391.1048555262497ZM771.3356278748357 368.82006677585207L771.3356278748357 330.08202277983366Q771.3356278748357 327.0736920035598 770.2017185822402 324.4356173228274Q769.0678092896447 321.797542642095 767.1239647880524 319.8305571345313Q765.1569792804887 317.88671263293895 762.5189045997563 316.75280334034346Q759.8808299190239 315.59575304177656 756.87249914275 315.59575304177656L756.87249914275 315.59575304177656L750.1847484170336 315.59575304177656Q747.1764176407597 315.59575304177656 744.5383429600273 316.75280334034346Q741.9002682792949 317.88671263293895 739.9332827717312 319.8305571345313Q737.9894382701389 321.797542642095 736.8555289775434 324.4356173228274Q735.7216196849479 327.0736920035598 735.7216196849479 330.08202277983366L735.7216196849479 330.08202277983366L735.7216196849479 368.82006677585207Q735.7216196849479 371.8283975521259 736.8555289775434 374.46647223285834Q737.9894382701389 377.10454691359075 739.9332827717312 379.0715324211544Q741.9002682792949 381.0153769227468 744.5383429600273 382.1492862153423Q747.1764176407597 383.28319550793776 750.1847484170336 383.28319550793776L750.1847484170336 383.28319550793776L756.87249914275 383.28319550793776Q759.8808299190239 383.28319550793776 762.5189045997563 382.1492862153423Q765.1569792804887 381.0153769227468 767.1239647880524 379.0715324211544Q769.0678092896447 377.10454691359075 770.2017185822402 374.46647223285834Q771.3356278748357 371.8283975521259 771.3356278748357 368.82006677585207L771.3356278748357 368.82006677585207ZM857.0036319807259 368.2415416265686L857.0036319807259 368.2415416265686Q857.0036319807259 373.28628092832014 855.1060694910763 377.7524950807882Q853.1853659954553 382.2418502392276 849.8530611355827 385.57415509910015Q846.5207562757101 388.90645995897273 842.0545421232421 390.8271634545937Q837.5651869648027 392.72472594424335 832.5204476630512 392.72472594424335L832.5204476630512 392.72472594424335L825.855837943306 392.72472594424335Q820.8110986415546 392.72472594424335 816.3448844890864 390.8271634545937Q811.8555293306471 388.90645995897273 808.5232244707746 385.57415509910015Q805.190919610902 382.2418502392276 803.270216115281 377.7524950807882Q801.3726536256314 373.28628092832014 801.3726536256314 368.2415416265686L801.3726536256314 368.2415416265686L801.3726536256314 330.6605479291171Q801.3726536256314 325.6158086273656 803.270216115281 321.1495944748975Q805.190919610902 316.66023931645805 808.5232244707746 313.3279344565856Q811.8555293306471 309.995629596713 816.3448844890864 308.07492610109205Q820.8110986415546 306.1773636114424 825.855837943306 306.1773636114424L825.855837943306 306.1773636114424L832.5204476630512 306.1773636114424Q837.5651869648027 306.1773636114424 842.0545421232421 308.07492610109205Q846.5207562757101 309.995629596713 849.8530611355827 313.3279344565856Q853.1853659954553 316.66023931645805 855.1060694910763 321.1495944748975Q857.0036319807259 325.6158086273656 857.0036319807259 330.6605479291171L857.0036319807259 330.6605479291171L857.0036319807259 368.2415416265686ZM847.0067174011082 368.82006677585207L847.0067174011082 330.08202277983366Q847.0067174011082 327.0736920035598 845.8728081085127 324.4356173228274Q844.7388988159172 321.797542642095 842.7719133083535 319.8305571345313Q840.8280688067613 317.88671263293895 838.1899941260288 316.75280334034346Q835.528778439325 315.59575304177656 832.5204476630512 315.59575304177656L832.5204476630512 315.59575304177656L825.855837943306 315.59575304177656Q822.8475071670323 315.59575304177656 820.2094324862998 316.75280334034346Q817.548216799596 317.88671263293895 815.6043722980038 319.8305571345313Q813.6605277964114 321.797542642095 812.5034774978445 324.4356173228274Q811.369568205249 327.0736920035598 811.369568205249 330.08202277983366L811.369568205249 330.08202277983366L811.369568205249 368.82006677585207Q811.369568205249 371.8283975521259 812.5034774978445 374.46647223285834Q813.6605277964114 377.10454691359075 815.6043722980038 379.0715324211544Q817.548216799596 381.0153769227468 820.2094324862998 382.1492862153423Q822.8475071670323 383.28319550793776 825.855837943306 383.28319550793776L825.855837943306 383.28319550793776L832.5204476630512 383.28319550793776Q835.528778439325 383.28319550793776 838.1899941260288 382.1492862153423Q840.8280688067613 381.0153769227468 842.7719133083535 379.0715324211544Q844.7388988159172 377.10454691359075 845.8728081085127 374.46647223285834Q847.0067174011082 371.8283975521259 847.0067174011082 368.82006677585207L847.0067174011082 368.82006677585207ZM970.186292186536 391.1048555262497L962.4571961921093 363.93731451589986L925.5241506618553 363.93731451589986L917.8644776853426 391.1048555262497L906.9650638728427 391.1048555262497L941.1443296925078 274.4510444247391L946.6750301196574 274.4510444247391L980.9931419751504 391.1048555262497L970.186292186536 391.1048555262497ZM943.6666993433836 300.1607020588947L928.3704943963297 353.91725893031094L959.6802754755489 353.91725893031094L944.314647510581 300.1607020588947L943.9906734269823 295.8333339422546L943.6666993433836 300.1607020588947ZM1048.287187339799 368.2415416265686L1048.287187339799 368.2415416265686Q1048.287187339799 373.28628092832014 1046.3664838441778 377.7524950807882Q1044.445780348557 382.2418502392276 1041.1134754886843 385.57415509910015Q1037.7811706288117 388.90645995897273 1033.314956476344 390.8271634545937Q1028.8256013179043 392.72472594424335 1023.7808620161528 392.72472594424335L1023.7808620161528 392.72472594424335L1021.258492365277 392.72472594424335Q1015.6583689202135 392.72472594424335 1010.8450396781753 390.45690735905225Q1006.0548514421085 388.16594776788986 1002.6299825583507 384.11627172290594L1002.6299825583507 384.11627172290594L1002.6299825583507 424.45104513094657L992.6330679787329 424.45104513094657L992.6330679787329 307.7972340294359L995.9653728386055 307.7972340294359L1001.4266502478412 316.2668422149453Q1004.8283781256276 311.61550001470664 1010.0119634632073 308.8848613100888Q1015.1724077948153 306.1773636114424 1021.258492365277 306.1773636114424L1021.258492365277 306.1773636114424L1023.7808620161528 306.1773636114424Q1028.8256013179043 306.1773636114424 1033.314956476344 308.07492610109205Q1037.7811706288117 309.995629596713 1041.1134754886843 313.3279344565856Q1044.445780348557 316.66023931645805 1046.3664838441778 321.1495944748975Q1048.287187339799 325.6158086273656 1048.287187339799 330.6605479291171L1048.287187339799 330.6605479291171L1048.287187339799 368.2415416265686ZM1038.26713175421 368.82006677585207L1038.26713175421 330.08202277983366Q1038.26713175421 327.0736920035598 1037.1332224616144 324.4356173228274Q1035.999313169019 321.797542642095 1034.0323276614554 319.8305571345313Q1032.0884831598628 317.88671263293895 1029.4504084791306 316.75280334034346Q1026.7891927924265 315.59575304177656 1023.7808620161528 315.59575304177656L1023.7808620161528 315.59575304177656L1017.1162522964077 315.59575304177656Q1014.1079215201338 315.59575304177656 1011.4698468394014 316.75280334034346Q1008.831772158669 317.88671263293895 1006.8647866511053 319.8305571345313Q1004.920942149513 321.797542642095 1003.7870328569174 324.4356173228274Q1002.6299825583507 327.0736920035598 1002.6299825583507 330.08202277983366L1002.6299825583507 330.08202277983366L1002.6299825583507 368.82006677585207Q1002.6299825583507 371.8283975521259 1003.7870328569174 374.46647223285834Q1004.920942149513 377.10454691359075 1006.8647866511053 379.0715324211544Q1008.831772158669 381.0153769227468 1011.4698468394014 382.1492862153423Q1014.1079215201338 383.28319550793776 1017.1162522964077 383.28319550793776L1017.1162522964077 383.28319550793776L1023.7808620161528 383.28319550793776Q1026.7891927924265 383.28319550793776 1029.4504084791306 382.1492862153423Q1032.0884831598628 381.0153769227468 1034.0323276614554 379.0715324211544Q1035.999313169019 377.10454691359075 1037.1332224616144 374.46647223285834Q1038.26713175421 371.8283975521259 1038.26713175421 368.82006677585207L1038.26713175421 368.82006677585207ZM1123.9351358601002 368.2415416265686L1123.9351358601002 368.2415416265686Q1123.9351358601002 373.28628092832014 1122.0375733704504 377.7524950807882Q1120.1168698748293 382.2418502392276 1116.784565014957 385.57415509910015Q1113.4522601550843 388.90645995897273 1108.9629049966447 390.8271634545937Q1104.496690844177 392.72472594424335 1099.4519515424254 392.72472594424335L1099.4519515424254 392.72472594424335L1096.9295818915498 392.72472594424335Q1091.3063174405147 392.72472594424335 1086.5161292044477 390.45690735905225Q1081.725940968381 388.16594776788986 1078.3010720846232 384.11627172290594L1078.3010720846232 384.11627172290594L1078.3010720846232 424.45104513094657L1068.2810164990342 424.45104513094657L1068.2810164990342 307.7972340294359L1071.6364623648778 307.7972340294359L1077.074598768142 316.2668422149453Q1080.4994676519 311.61550001470664 1085.6599119835082 308.8848613100888Q1090.8203563151164 306.1773636114424 1096.9295818915498 306.1773636114424L1096.9295818915498 306.1773636114424L1099.4519515424254 306.1773636114424Q1104.496690844177 306.1773636114424 1108.9629049966447 308.07492610109205Q1113.4522601550843 309.995629596713 1116.784565014957 313.3279344565856Q1120.1168698748293 316.66023931645805 1122.0375733704504 321.1495944748975Q1123.9351358601002 325.6158086273656 1123.9351358601002 330.6605479291171L1123.9351358601002 330.6605479291171L1123.9351358601002 368.2415416265686ZM1113.9382212804826 368.82006677585207L1113.9382212804826 330.08202277983366Q1113.9382212804826 327.0736920035598 1112.804311987887 324.4356173228274Q1111.6472616893202 321.797542642095 1109.7034171877276 319.8305571345313Q1107.7595726861355 317.88671263293895 1105.0983569994319 316.75280334034346Q1102.4602823186992 315.59575304177656 1099.4519515424254 315.59575304177656L1099.4519515424254 315.59575304177656L1092.78734182268 315.59575304177656Q1089.7790110464066 315.59575304177656 1087.1177953597025 316.75280334034346Q1084.47972067897 317.88671263293895 1082.5358761773778 319.8305571345313Q1080.5688906698142 321.797542642095 1079.4349813772187 324.4356173228274Q1078.3010720846232 327.0736920035598 1078.3010720846232 330.08202277983366L1078.3010720846232 330.08202277983366L1078.3010720846232 368.82006677585207Q1078.3010720846232 371.8283975521259 1079.4349813772187 374.46647223285834Q1080.5688906698142 377.10454691359075 1082.5358761773778 379.0715324211544Q1084.47972067897 381.0153769227468 1087.1177953597025 382.1492862153423Q1089.7790110464066 383.28319550793776 1092.78734182268 383.28319550793776L1092.78734182268 383.28319550793776L1099.4519515424254 383.28319550793776Q1102.4602823186992 383.28319550793776 1105.0983569994319 382.1492862153423Q1107.7595726861355 381.0153769227468 1109.7034171877276 379.0715324211544Q1111.6472616893202 377.10454691359075 1112.804311987887 374.46647223285834Q1113.9382212804826 371.8283975521259 1113.9382212804826 368.82006677585207L1113.9382212804826 368.82006677585207Z " fill="#fcedda" transform="matrix(0.7785146695665017,0,0,0.7785146695665017,0,27.94722184550487)"/></g></svg>